<svg xmlns="http://www.w3.org/2000/svg" width="1200" height="630" viewBox="0 0 1200 630" role="img" aria-labelledby="title desc">
  <title id="title">KreativTools social card</title>
  <desc id="desc">Business, tech, markets, and regional signal in one fast scan.</desc>
  <defs>
    <linearGradient id="bg" x1="0" y1="0" x2="1" y2="1">
      <stop offset="0%" stop-color="#fbfcf9" />
      <stop offset="100%" stop-color="#e5ece8" />
    </linearGradient>
  </defs>
  <rect width="1200" height="630" fill="url(#bg)" />
  <g fill="none" stroke="#d9ded9" stroke-width="1">
    <path d="M0 110H1200" />
    <path d="M0 220H1200" />
    <path d="M0 330H1200" />
    <path d="M0 440H1200" />
    <path d="M0 550H1200" />
    <path d="M120 0V630" />
    <path d="M240 0V630" />
    <path d="M360 0V630" />
    <path d="M480 0V630" />
    <path d="M600 0V630" />
    <path d="M720 0V630" />
    <path d="M840 0V630" />
    <path d="M960 0V630" />
    <path d="M1080 0V630" />
  </g>
  <rect x="70" y="64" width="74" height="74" rx="8" fill="#141817" />
  <text x="107" y="112" text-anchor="middle" font-family="Space Grotesk, Arial, sans-serif" font-size="28" font-weight="700" fill="#ffffff">KT</text>
  <text x="184" y="109" font-family="Space Grotesk, Arial, sans-serif" font-size="32" font-weight="700" fill="#141817">KreativTools</text>
  <text x="70" y="230" font-family="Source Serif 4, Georgia, serif" font-size="74" font-weight="700" fill="#141817">Business, tech, markets,</text>
  <text x="70" y="314" font-family="Source Serif 4, Georgia, serif" font-size="74" font-weight="700" fill="#141817">and regional signal</text>
  <text x="70" y="398" font-family="Source Serif 4, Georgia, serif" font-size="74" font-weight="700" fill="#141817">in one fast scan.</text>
  <text x="72" y="494" font-family="Space Grotesk, Arial, sans-serif" font-size="28" font-weight="500" fill="#4f5a55">
    Markets, tech, and regional headlines in one brief.
  </text>
  <rect x="70" y="536" width="284" height="14" rx="7" fill="#0e6b58" opacity="0.86" />
  <rect x="364" y="536" width="184" height="14" rx="7" fill="#285f9f" opacity="0.8" />
</svg>
